<svg id="Layer_1" data-name="Layer 1" xmlns="http://www.w3.org/2000/svg" xmlns:xlink="http://www.w3.org/1999/xlink" viewBox="0 0 71 54.12"><defs><style>.cls-1{fill:none;}.cls-2{clip-path:url(#clip-path);}.cls-3{fill:#f2a60e;}</style><clipPath id="clip-path" transform="translate(135.94 32.66)"><rect class="cls-1" x="-135.94" y="-33.07" width="71" height="55"/></clipPath></defs><g class="cls-2"><path class="cls-3" d="M-75.84-28.17a58,58,0,0,0-14.45-4.48.21.21,0,0,0-.23.11,40.45,40.45,0,0,0-1.8,3.69,53.85,53.85,0,0,0-16.23,0,38.33,38.33,0,0,0-1.83-3.69.21.21,0,0,0-.23-.11,58.23,58.23,0,0,0-14.45,4.48.16.16,0,0,0-.1.08c-9.2,13.75-11.72,27.16-10.49,40.41a.23.23,0,0,0,.1.17,59,59,0,0,0,17.72,9,.23.23,0,0,0,.25-.08,41.53,41.53,0,0,0,3.63-5.9.22.22,0,0,0-.12-.31,40.22,40.22,0,0,1-5.54-2.64.23.23,0,0,1,0-.38l1.1-.86a.2.2,0,0,1,.23,0,42,42,0,0,0,35.68,0,.21.21,0,0,1,.23,0c.36.3.73.59,1.1.87a.23.23,0,0,1,0,.38,36.52,36.52,0,0,1-5.54,2.63.24.24,0,0,0-.12.32,47.38,47.38,0,0,0,3.63,5.9.22.22,0,0,0,.24.08,58.68,58.68,0,0,0,17.76-9,.22.22,0,0,0,.09-.17A59.58,59.58,0,0,0-75.74-28.09.16.16,0,0,0-75.84-28.17ZM-112.21,4.26c-3.5,0-6.39-3.22-6.39-7.16s2.83-7.16,6.39-7.16,6.43,3.24,6.38,7.16S-108.66,4.26-112.21,4.26Zm23.59,0C-92.12,4.26-95,1-95-2.9s2.82-7.16,6.38-7.16,6.43,3.24,6.38,7.16S-85,4.26-88.62,4.26Z" transform="translate(135.94 32.66)"/></g></svg>