<svg xmlns="http://www.w3.org/2000/svg" viewBox="0 0 22.18 20.51"><defs><style>.cls-1{fill:#f2a60e;fill-rule:evenodd;}</style></defs><g id="Layer_2" data-name="Layer 2"><g id="OBJECTS"><path class="cls-1" d="M21.06,14.54c-.56-.27-3.23-1.58-3.73-1.76s-.87-.27-1.23.27-1.42,1.77-1.73,2.12-.64.41-1.19.13a14.83,14.83,0,0,1-4.39-2.68,16.31,16.31,0,0,1-3-3.74c-.31-.55,0-.84.24-1.11s.54-.63.82-.95A2.26,2.26,0,0,0,7,6.56a5.27,5.27,0,0,0,.35-.64,1,1,0,0,0,0-1C7.19,4.7,6.09,2,5.64,1S4.73.05,4.41.05s-.68,0-1,0A2,2,0,0,0,1.91.68,6,6,0,0,0,0,5.2,6.72,6.72,0,0,0,.28,7a12.12,12.12,0,0,0,2,3.75c.27.36,3.77,6,9.31,8.18s5.56,1.44,6.56,1.35,3.23-1.31,3.67-2.58a4.54,4.54,0,0,0,.33-2.57C22,15,21.6,14.82,21.06,14.54Z"/></g></g></svg>