<svg xmlns="http://www.w3.org/2000/svg" xmlns:xlink="http://www.w3.org/1999/xlink" viewBox="0 0 461.74 512.04"><defs><style>.cls-1,.cls-3{fill:none;}.cls-2{isolation:isolate;}.cls-3{stroke:#fff;stroke-miterlimit:10;}.cls-4{fill:url(#Degradado_sin_nombre_3);}.cls-5{fill:#2a2ab2;}.cls-6{fill:#db0161;}.cls-7{fill:#ff932b;}.cls-8{mix-blend-mode:overlay;opacity:0.6;}.cls-9{clip-path:url(#clip-path);}</style><linearGradient id="Degradado_sin_nombre_3" x1="170.66" y1="167.18" x2="83.43" y2="-3.27" gradientTransform="translate(65.29 -9.84) rotate(9.32)" gradientUnits="userSpaceOnUse"><stop offset="0" stop-color="#ff932b"/><stop offset="0.13" stop-color="#fc892f"/><stop offset="0.36" stop-color="#f66d39"/><stop offset="0.65" stop-color="#ea3f4a"/><stop offset="1" stop-color="#db0161"/></linearGradient><clipPath id="clip-path" transform="translate(103.64 153.88)"><path class="cls-1" d="M85,56.26c-54.78,38-40.41,157.68,28.08,172.35s42.67-62.19,72.29-76.11,91.85-13.11,77.74-62.41S163.09,2.14,85,56.26Z"/></clipPath></defs><g class="cls-2"><g id="Layer_2" data-name="Layer 2"><g id="PRINT"><path class="cls-3" d="M95.65,44.57c-54.79,38-40.42,157.69,28.07,172.35s42.68-62.18,72.3-76.11,91.84-13.11,77.73-62.41S173.73-9.54,95.65,44.57Z" transform="translate(103.64 153.88)"/><path class="cls-4" d="M105,26.26c-54.78,38-40.41,157.68,28.08,172.35s42.67-62.19,72.29-76.12,91.85-13.1,77.74-62.4S183.09-27.86,105,26.26Z" transform="translate(103.64 153.88)"/><path class="cls-5" d="M162.3,277.71c1.35,53.93-56,79.41-109.53,59.84S-22.48,233.63,30.35,197.22s4.79,22.17,48.11,36.07S161.21,234.29,162.3,277.71Z" transform="translate(103.64 153.88)"/><circle class="cls-6" cx="213.94" cy="163.49" r="18.16" transform="translate(121.77 502.18) rotate(-80.73)"/><circle class="cls-7" cx="173.95" cy="314.99" r="11.63" transform="translate(-71.49 556.14) rotate(-75.13)"/><circle class="cls-3" cx="260.96" cy="430.2" r="20.99"/><g class="cls-8"><g class="cls-9"><line class="cls-3" x1="91.82" y1="201.22" x2="351.16" y2="338.4"/><line class="cls-3" x1="88.01" y1="208.44" x2="347.34" y2="345.62"/><line class="cls-3" x1="84.19" y1="215.65" x2="343.52" y2="352.83"/><line class="cls-3" x1="80.37" y1="222.87" x2="339.71" y2="360.05"/><line class="cls-3" x1="76.56" y1="230.08" x2="335.89" y2="367.26"/><line class="cls-3" x1="72.74" y1="237.29" x2="332.07" y2="374.47"/><line class="cls-3" x1="68.92" y1="244.51" x2="328.26" y2="381.69"/><line class="cls-3" x1="65.11" y1="251.72" x2="324.44" y2="388.9"/><line class="cls-3" x1="61.29" y1="258.94" x2="320.63" y2="396.12"/><line class="cls-3" x1="57.48" y1="266.15" x2="316.81" y2="403.33"/><line class="cls-3" x1="53.66" y1="273.37" x2="312.99" y2="410.55"/><line class="cls-3" x1="49.84" y1="280.58" x2="309.18" y2="417.76"/><line class="cls-3" x1="46.03" y1="287.79" x2="305.36" y2="424.97"/><line class="cls-3" x1="42.21" y1="295.01" x2="301.55" y2="432.19"/><line class="cls-3" x1="38.4" y1="302.22" x2="297.73" y2="439.4"/><line class="cls-3" x1="34.58" y1="309.44" x2="293.91" y2="446.62"/><line class="cls-3" x1="30.76" y1="316.65" x2="290.1" y2="453.83"/><line class="cls-3" x1="26.95" y1="323.87" x2="286.28" y2="461.05"/><line class="cls-3" x1="157.15" y1="78.53" x2="416.49" y2="215.71"/><line class="cls-3" x1="153.34" y1="85.74" x2="412.67" y2="222.92"/><line class="cls-3" x1="149.52" y1="92.95" x2="408.86" y2="230.13"/><line class="cls-3" x1="145.71" y1="100.17" x2="405.04" y2="237.35"/><line class="cls-3" x1="141.89" y1="107.38" x2="401.22" y2="244.56"/><line class="cls-3" x1="138.07" y1="114.6" x2="397.41" y2="251.78"/><line class="cls-3" x1="134.26" y1="121.81" x2="393.59" y2="258.99"/><line class="cls-3" x1="130.44" y1="129.03" x2="389.78" y2="266.21"/><line class="cls-3" x1="126.63" y1="136.24" x2="385.96" y2="273.42"/><line class="cls-3" x1="122.81" y1="143.45" x2="382.14" y2="280.63"/><line class="cls-3" x1="118.99" y1="150.67" x2="378.33" y2="287.85"/><line class="cls-3" x1="115.18" y1="157.88" x2="374.51" y2="295.06"/><line class="cls-3" x1="202.17" y1="0.44" x2="461.5" y2="137.62"/><line class="cls-3" x1="198.35" y1="7.66" x2="457.69" y2="144.84"/><line class="cls-3" x1="194.54" y1="14.87" x2="453.87" y2="152.05"/><line class="cls-3" x1="190.72" y1="22.08" x2="450.06" y2="159.27"/><line class="cls-3" x1="186.91" y1="29.3" x2="446.24" y2="166.48"/><line class="cls-3" x1="183.09" y1="36.51" x2="442.42" y2="173.69"/><line class="cls-3" x1="179.27" y1="43.73" x2="438.61" y2="180.91"/><line class="cls-3" x1="175.46" y1="50.94" x2="434.79" y2="188.12"/><line class="cls-3" x1="171.64" y1="58.16" x2="430.97" y2="195.34"/><line class="cls-3" x1="167.82" y1="65.37" x2="427.16" y2="202.55"/><line class="cls-3" x1="164.01" y1="72.58" x2="423.34" y2="209.77"/><line class="cls-3" x1="111.36" y1="165.1" x2="370.7" y2="302.28"/><line class="cls-3" x1="107.54" y1="172.31" x2="366.88" y2="309.49"/><line class="cls-3" x1="103.73" y1="179.53" x2="363.06" y2="316.71"/><line class="cls-3" x1="99.91" y1="186.74" x2="359.25" y2="323.92"/><line class="cls-3" x1="96.1" y1="193.95" x2="355.43" y2="331.13"/><line class="cls-3" x1="23.13" y1="331.08" x2="282.46" y2="468.26"/><line class="cls-3" x1="19.31" y1="338.29" x2="278.65" y2="475.47"/><line class="cls-3" x1="15.5" y1="345.51" x2="274.83" y2="482.69"/><line class="cls-3" x1="11.68" y1="352.72" x2="271.02" y2="489.9"/><line class="cls-3" x1="7.87" y1="359.99" x2="267.2" y2="497.17"/><line class="cls-3" x1="4.05" y1="367.21" x2="263.38" y2="504.39"/><line class="cls-3" x1="0.23" y1="374.42" x2="259.57" y2="511.6"/></g></g></g></g></g></svg>