<svg xmlns="http://www.w3.org/2000/svg" xmlns:xlink="http://www.w3.org/1999/xlink" viewBox="0 0 316.27 432.47"><defs><style>.cls-1,.cls-3{fill:none;}.cls-2{isolation:isolate;}.cls-3{stroke:#fff;stroke-miterlimit:10;}.cls-4{fill:url(#Degradado_sin_nombre_2);}.cls-5{fill:#db0161;}.cls-6{mix-blend-mode:overlay;}.cls-7{clip-path:url(#clip-path);}.cls-8{fill:#ff932b;}</style><linearGradient id="Degradado_sin_nombre_2" x1="86.69" y1="333.96" x2="209.49" y2="98.09" gradientUnits="userSpaceOnUse"><stop offset="0" stop-color="#c90172"/><stop offset="1" stop-color="#3834bb"/></linearGradient><clipPath id="clip-path" transform="translate(48.36 68.54)"><path class="cls-1" d="M63.21,13.83c-32.88,21.86-33,87.91,6.39,79S166.15,19.18,135,6.67,82.8.79,63.21,13.83Z"/></clipPath></defs><g class="cls-2"><g id="Layer_2" data-name="Layer 2"><g id="PRINT"><path class="cls-3" d="M156.07,112.85c-42.23,5.74-101.75,39.83-91.35,84.29s44.91,43,16.14,86.8,29.9,111.41,93.78,62.39S283.82,95.51,156.07,112.85Z" transform="translate(48.36 68.54)"/><path class="cls-4" d="M161.76,101.48C119.53,107.21,60,141.31,70.4,185.77s44.91,43,16.15,86.79S116.45,384,180.32,335,289.5,84.14,161.76,101.48Z" transform="translate(48.36 68.54)"/><path class="cls-5" d="M69.21,39.83c-32.88,21.86-33,87.91,6.39,79S172.15,45.18,141,32.67,88.8,26.79,69.21,39.83Z" transform="translate(48.36 68.54)"/><g class="cls-6"><g class="cls-7"><line class="cls-3" x1="46.03" y1="13.6" x2="305.36" y2="150.78"/><line class="cls-3" x1="42.21" y1="20.81" x2="301.55" y2="157.99"/><line class="cls-3" x1="38.4" y1="28.03" x2="297.73" y2="165.21"/><line class="cls-3" x1="34.58" y1="35.24" x2="293.91" y2="172.42"/><line class="cls-3" x1="30.76" y1="42.45" x2="290.1" y2="179.63"/><line class="cls-3" x1="26.95" y1="49.67" x2="286.28" y2="186.85"/><line class="cls-3" x1="23.13" y1="56.88" x2="282.46" y2="194.06"/><line class="cls-3" x1="19.31" y1="64.1" x2="278.65" y2="201.28"/><line class="cls-3" x1="15.5" y1="71.31" x2="274.83" y2="208.49"/><line class="cls-3" x1="11.68" y1="78.53" x2="271.02" y2="215.71"/><line class="cls-3" x1="7.87" y1="85.74" x2="267.2" y2="222.92"/><line class="cls-3" x1="4.05" y1="92.95" x2="263.38" y2="230.13"/><line class="cls-3" x1="56.7" y1="0.44" x2="316.03" y2="137.62"/><line class="cls-3" x1="52.88" y1="7.66" x2="312.22" y2="144.84"/><line class="cls-3" x1="0.23" y1="100.17" x2="259.57" y2="237.35"/></g></g><path class="cls-3" d="M63.52,24.66c-32.88,21.87-33,87.91,6.4,79S166.47,30,135.27,17.5,83.12,11.63,63.52,24.66Z" transform="translate(48.36 68.54)"/><path class="cls-8" d="M20.79,150.08c-17.57-3.4-25.51-15.56-17.91-26.82s31.39-19.19,45.82,5.28,2.35,51.33-13.08,48C19.83,173,29.39,151.75,20.79,150.08Z" transform="translate(48.36 68.54)"/><circle class="cls-3" cx="59.81" cy="156.12" r="8.02"/></g></g></g></svg>